<svg width="43" height="39" viewBox="0 0 542 542" fill="none" xmlns="http://www.w3.org/2000/svg">
<path opacity="0.5" d="M203.294 158.083C203.568 108.964 205.746 82.3628 223.098 65.0102C242.942 45.1667 274.88 45.1667 338.755 45.1667H361.338C425.213 45.1667 457.152 45.1667 476.994 65.0102C496.838 84.8537 496.838 116.791 496.838 180.667V361.333C496.838 425.208 496.838 457.145 476.994 476.989C457.152 496.833 425.213 496.833 361.338 496.833H338.755C274.88 496.833 242.942 496.833 223.098 476.989C205.746 459.636 203.568 433.035 203.294 383.917" stroke="#1C274C" stroke-width="50" stroke-linecap="round"/>
<path d="M338.75 271H45.1667M45.1667 271L124.208 203.25M45.1667 271L124.208 338.75" stroke="#1C274C" stroke-width="50" stroke-linecap="round" stroke-linejoin="round"/>
</svg>
