<svg width="44" height="45" viewBox="0 0 44 45" fill="none" xmlns="http://www.w3.org/2000/svg">
<path d="M19.25 33.75C22.8967 33.75 26.3941 32.2684 28.9727 29.6312C31.5513 26.994 33 23.4171 33 19.6875C33 15.9579 31.5513 12.3811 28.9727 9.74382C26.3941 7.10659 22.8967 5.62501 19.25 5.62501C15.6033 5.62501 12.1059 7.10659 9.52727 9.74382C6.94865 12.3811 5.49999 15.9579 5.49999 19.6875C5.49999 23.4171 6.94865 26.994 9.52727 29.6312C12.1059 32.2684 15.6033 33.75 19.25 33.75ZM32.0265 30.3666L41.2472 39.7969L38.9125 42.1847L29.6917 32.7544C26.4141 35.4939 22.2323 36.8404 18.0113 36.5153C13.7903 36.1902 9.85285 34.2184 7.01337 31.0077C4.17388 27.797 2.64953 23.593 2.75558 19.2652C2.86163 14.9373 4.58996 10.8167 7.58314 7.75551C10.5763 4.6943 14.6054 2.92669 18.837 2.81823C23.0687 2.70977 27.1792 4.26876 30.3186 7.17278C33.4579 10.0768 35.3859 14.1037 35.7038 18.4207C36.0217 22.7376 34.7052 27.0144 32.0265 30.3666Z" fill="black"/>
</svg>
